<svg width="268" height="109" viewBox="0 0 268 109" fill="none" xmlns="http://www.w3.org/2000/svg">
<path fill-rule="evenodd" clip-rule="evenodd" d="M39.6477 85.5066C52.891 74.0128 67 61.586 67 45.6464C67 27.3402 52.0015 12.5 33.5 12.5C14.9985 12.5 0 27.3402 0 45.6464C0 61.7413 14.2696 74.0128 27.4592 85.3531C31.0545 88.1394 36.0122 88.2378 39.6477 85.5066Z" fill="#1C57BC"/>
<ellipse cx="33.5" cy="93.5" rx="18.5" ry="3" fill="#575E74"/>
<path d="M30.9744 66C29.9095 66 28.8364 65.8789 27.7553 65.6366C26.6742 65.3943 25.5689 65.047 24.4394 64.5947C24.8267 60.6857 25.9562 57.0351 27.828 53.643C29.6997 50.2508 32.1039 47.2625 35.0407 44.6781C31.4908 46.4872 28.4169 48.8778 25.819 51.85C23.2212 54.8221 21.4059 58.2143 20.3732 62.0264C20.2441 61.9294 20.1231 61.8245 20.0102 61.7114L19.6471 61.3479C18.1303 59.8296 16.9766 58.1335 16.186 56.2598C15.3953 54.386 15 52.4315 15 50.3962C15 48.1994 15.4357 46.0995 16.307 44.0966C17.1783 42.0936 18.3885 40.3168 19.9376 38.7661C22.5516 36.1493 25.9401 34.4451 30.1031 33.6537C34.2661 32.8622 40.1073 32.7895 47.6266 33.4356C48.2075 41.1567 48.1106 47.0445 47.3361 51.0989C46.5616 55.1533 44.8835 58.4727 42.3018 61.0572C40.7205 62.6402 38.9536 63.8597 37.0011 64.7158C35.0487 65.5719 33.0398 66 30.9744 66Z" fill="white"/>
<path d="M83.9375 80V34.2188H98.2188C104.281 34.2188 108.802 35.1042 111.781 36.875C114.76 38.6458 116.25 41.5938 116.25 45.7188C116.25 46.3854 116.208 47.0417 116.125 47.6875C116.042 48.3333 115.854 49.0729 115.562 49.9062C115.271 50.7188 114.885 51.4583 114.406 52.125C113.927 52.7917 113.26 53.4479 112.406 54.0938C111.552 54.7188 110.552 55.2083 109.406 55.5625C112.24 56.25 114.406 57.5729 115.906 59.5312C117.406 61.4688 118.156 63.8646 118.156 66.7188C118.156 71.0312 116.625 74.3229 113.562 76.5938C110.521 78.8646 106.302 80 100.906 80H83.9375ZM92.4062 73.875H99.75C106.25 73.875 109.5 71.3333 109.5 66.25C109.5 63.6875 108.688 61.8438 107.062 60.7188C105.438 59.5938 102.927 59.0312 99.5312 59.0312H92.4062V73.875ZM92.4062 53.125H99.6562C105.26 53.125 108.062 50.9896 108.062 46.7188C108.062 44.3229 107.25 42.6771 105.625 41.7812C104.021 40.8854 101.458 40.4375 97.9375 40.4375H92.4062V53.125ZM140.719 80.6562C135.198 80.6562 130.896 79.0729 127.812 75.9062C124.75 72.7188 123.219 68.3229 123.219 62.7188C123.219 57.2604 124.667 52.9167 127.562 49.6875C130.458 46.4583 134.406 44.8333 139.406 44.8125C144.135 44.8125 147.802 46.2917 150.406 49.25C153.031 52.2083 154.344 56.1354 154.344 61.0312C154.344 61.3854 154.333 61.9583 154.312 62.75C154.312 63.5417 154.312 64.125 154.312 64.5H131.469C131.552 67.7083 132.427 70.1979 134.094 71.9688C135.781 73.7188 138.094 74.5938 141.031 74.5938C144.781 74.5938 148.385 73.6146 151.844 71.6562L153 77.4688C149.562 79.5938 145.469 80.6562 140.719 80.6562ZM131.625 59.3438H146.625C146.625 56.5521 145.99 54.4062 144.719 52.9062C143.448 51.4062 141.688 50.6562 139.438 50.6562C137.333 50.6562 135.552 51.3854 134.094 52.8438C132.656 54.3021 131.833 56.4688 131.625 59.3438ZM161.031 80V45.6562H167.625L168.531 50C172.031 46.5417 175.917 44.8125 180.188 44.8125C184.188 44.8125 187.177 45.9688 189.156 48.2812C191.156 50.5729 192.156 53.9062 192.156 58.2812V80H183.938V59.2812C183.917 56.5104 183.469 54.4375 182.594 53.0625C181.719 51.6875 180.146 51 177.875 51C176.104 51 174.479 51.4583 173 52.375C171.542 53.2708 170.479 54.4062 169.812 55.7812C169.417 57.4062 169.219 59.9062 169.219 63.2812V80H161.031ZM216.094 80.6562C210.573 80.6562 206.271 79.0729 203.188 75.9062C200.125 72.7188 198.594 68.3229 198.594 62.7188C198.594 57.2604 200.042 52.9167 202.938 49.6875C205.833 46.4583 209.781 44.8333 214.781 44.8125C219.51 44.8125 223.177 46.2917 225.781 49.25C228.406 52.2083 229.719 56.1354 229.719 61.0312C229.719 61.3854 229.708 61.9583 229.688 62.75C229.688 63.5417 229.688 64.125 229.688 64.5H206.844C206.927 67.7083 207.802 70.1979 209.469 71.9688C211.156 73.7188 213.469 74.5938 216.406 74.5938C220.156 74.5938 223.76 73.6146 227.219 71.6562L228.375 77.4688C224.938 79.5938 220.844 80.6562 216.094 80.6562ZM207 59.3438H222C222 56.5521 221.365 54.4062 220.094 52.9062C218.823 51.4062 217.062 50.6562 214.812 50.6562C212.708 50.6562 210.927 51.3854 209.469 52.8438C208.031 54.3021 207.208 56.4688 207 59.3438ZM245.906 80L232.219 45.6562H240.906C241.24 46.5938 242.292 49.5104 244.062 54.4062C245.854 59.2812 247.042 62.6042 247.625 64.375C248.812 67.8333 249.667 70.4479 250.188 72.2188C250.188 72.1979 250.365 71.5208 250.719 70.1875C251.073 68.8542 251.406 67.6042 251.719 66.4375C252.052 65.25 252.26 64.5312 252.344 64.2812C252.365 64.2396 253.312 61.3646 255.188 55.6562C257.083 49.9479 258.208 46.6146 258.562 45.6562H267.188L254.188 80H245.906Z" fill="black"/>
</svg>
